<svg width="879" height="836" viewBox="0 0 879 836" fill="none" xmlns="http://www.w3.org/2000/svg">
  <!-- 首都遺址 (中央圓形) -->
  <circle id="capital-region" cx="466.524" cy="358.53" r="31" fill="transparent" stroke="transparent" class="map-region" data-name="首都遺址" />
  
  <!-- 西教廷 (左側) -->
  <path id="west-region" d="M189.024 356.03L114.024 340.03L89.0242 356.03L65.0242 417.03L89.0242 488.03L134.024 531.03L213.024 483.03L227.024 388.03L189.024 356.03Z" fill="transparent" stroke="transparent" class="map-region" data-name="西教廷" />
  
  <!-- 東末城 (右側) -->
  <path id="eastend-region" d="M690.024 550.03V585.03L673.024 647.03L695.024 665.03L729.024 678.03H761.024L809.024 642.03L801.024 622.03L809.024 572.03L801.024 543.03L775.024 527.03H717.024L690.024 550.03Z" fill="transparent" stroke="transparent" class="map-region" data-name="東末城" />
  
  <!-- 北都城 (北方) -->
  <path id="north-region" d="M377.524 234.53L334.524 217.03L312.524 220.53L297.524 190.03L253.024 145.03L270.024 94.5297L312.524 73.0297L369.024 80.0297L420.524 88.5297L436.524 73.0297L496.024 69.5297L501.524 51.0297H520.024L516.024 80.0297L604.024 69.5297L673.524 110.03L706.524 167.03L691.024 217.03C694.691 227.196 702.924 248.23 706.524 251.03C710.124 253.83 708.024 267.53 706.524 274.03H641.024L574.524 268.03L527.024 285.53L469.524 256.53L377.524 234.53Z" fill="transparent" stroke="transparent" class="map-region" data-name="北都城" />
  
  <!-- 內海區域 (中央偏下) -->
  <path id="innersea-region" d="M379.024 539.03L346.024 566.03L328.024 590.03V611.03L346.024 651.03V689.03L385.024 709.03L435.024 701.03L494.024 675.03L501.024 663.03L541.024 619.03L558.024 585.03L541.024 531.03L501.024 506.03L459.024 498.03L428.024 523.03L379.024 539.03Z" fill="transparent" stroke="transparent" class="map-region" data-name="內海" />
  
  <!-- 中央荒野 -->
  <path id="wilderness-region" d="M243.524 312.53L267.524 327.53L287.524 378.03L301.024 417.53L311.524 450.53L332.024 482.53L356.524 478.03L345.024 440.03L356.524 444.03L371.024 436.53L383.024 440.03H394.024L401.024 444.03L408.524 440.03L421.524 444.03L436.524 450.53L450.524 470.53L455.524 491.03L474.024 488.03L471.524 469.03L460.524 444.03L477.024 433.03H504.524L546.524 440.03L572.524 444.03L604.024 417.53L628.524 427.53L642.024 417.53L628.524 407.03L642.024 365.53L615.524 334.53L628.524 317.53L663.024 324.03L668.524 312.53L660.024 293.03V277.03H642.024L578.024 270.03L527.024 288.53L467.524 260.03L378.024 239.03L329.024 221.03L305.024 228.03L287.524 235.53L256.024 270.03L243.524 312.53Z" fill="transparent" stroke="transparent" class="map-region" data-name="中央荒野" />
</svg>
